<?xml version="1.0" standalone="no"?>
<!DOCTYPE svg PUBLIC "-//W3C//DTD SVG 20010904//EN"
 "http://www.w3.org/TR/2001/REC-SVG-20010904/DTD/svg10.dtd">
<svg version="1.0" xmlns="http://www.w3.org/2000/svg"
 width="512.000000pt" height="512.000000pt" viewBox="0 0 512.000000 512.000000"
 preserveAspectRatio="xMidYMid meet">
<metadata>
Created by potrace 1.11, written by Peter Selinger 2001-2013
</metadata>
<g transform="translate(0.000000,512.000000) scale(0.100000,-0.100000)"
fill="#000000" stroke="none">
<path d="M194 3821 l0 -571 49 0 49 0 -4 495 -5 495 34 -77 c19 -43 40 -91 47
-108 7 -16 87 -204 176 -417 l163 -388 37 0 c21 0 40 6 43 13 5 12 378 896
403 952 10 25 12 -56 9 -467 l-3 -498 49 0 49 0 0 569 0 570 -63 0 -64 0 -21
-47 c-11 -26 -106 -251 -211 -501 l-190 -455 -16 35 c-8 19 -103 243 -209 499
l-194 465 -64 3 -64 3 0 -570z"/>
<path d="M4784 4382 c-6 -5 -10 -696 -9 -1827 0 -1812 0 -1820 20 -1820 20 0
20 8 20 1822 0 1312 -3 1824 -11 1827 -6 2 -15 1 -20 -2z"/>
<path d="M5009 4386 c-3 -2 -7 -931 -11 -2281 l-3 -1370 60 0 59 0 1 1825 0
1825 -52 1 c-29 0 -54 0 -54 0z"/>
<path d="M2497 4086 c-113 -47 -186 -132 -222 -260 -20 -69 -26 -181 -13 -263
9 -63 54 -162 92 -204 140 -157 399 -166 541 -20 l40 42 -30 23 -29 24 -36
-36 c-46 -47 -106 -72 -181 -77 -137 -9 -251 75 -293 215 -9 29 -16 72 -16 95
l0 41 291 0 c160 -1 296 2 301 5 15 10 4 154 -17 214 -23 67 -31 80 -73 127
-84 93 -235 124 -355 74z m197 -68 c78 -24 145 -116 159 -220 6 -47 6 -48 -21
-49 -81 -3 -459 -4 -470 -1 -33 11 30 166 89 218 72 62 151 79 243 52z"/>
<path d="M3370 4095 c-42 -13 -98 -58 -133 -109 -12 -16 -13 -13 -12 30 2 75
-1 80 -48 79 l-42 0 -2 -423 -2 -422 47 0 47 0 -1 288 c0 302 3 329 48 394 32
47 101 80 176 86 37 2 69 6 72 9 9 8 5 68 -5 75 -16 12 -96 8 -145 -7z"/>
<path d="M3845 4095 c-146 -43 -215 -149 -179 -274 25 -85 95 -131 273 -176
114 -29 165 -51 198 -87 68 -73 42 -177 -56 -221 -68 -31 -189 -29 -255 3 -56
29 -82 58 -96 110 -10 36 -12 37 -55 37 -41 0 -45 -2 -45 -24 0 -37 28 -95 63
-131 77 -80 212 -113 366 -89 40 7 113 44 146 75 62 57 83 168 45 241 -39 77
-107 116 -285 163 -178 47 -224 87 -212 181 23 168 364 169 409 1 l12 -44 48
0 48 0 -5 33 c-17 95 -90 171 -197 202 -63 18 -163 18 -223 0z"/>
<path d="M1466 4091 c-2 -3 67 -193 154 -421 l158 -414 -29 -78 c-51 -140 -96
-182 -193 -184 -49 0 -51 -1 -52 -30 -1 -46 4 -50 61 -53 92 -4 172 45 217
132 11 22 51 125 89 230 38 106 73 201 78 212 19 41 213 581 215 594 1 11 -11
15 -46 16 l-47 1 -102 -295 c-57 -163 -112 -322 -124 -355 l-22 -58 -15 38
c-8 22 -66 179 -129 349 -62 171 -114 312 -116 315 -5 6 -93 7 -97 1z"/>
<path d="M3325 3157 c-44 -20 -59 -43 -59 -93 -1 -34 5 -50 24 -69 41 -41 125
-39 164 4 20 22 28 75 16 106 -19 49 -93 75 -145 52z"/>
<path d="M166 3131 c-1 -3 -2 -258 -2 -566 l1 -560 100 -3 100 -3 -1 173 c-1
157 -11 482 -19 633 -2 35 0 54 5 45 4 -8 69 -175 144 -370 74 -195 146 -382
159 -415 l23 -60 71 -3 71 -3 42 108 c23 59 73 191 112 293 38 102 76 199 83
215 7 17 30 76 50 133 21 56 42 102 47 102 5 0 7 -3 5 -7 -7 -12 -20 -386 -21
-625 l-1 -218 97 0 98 0 1 38 c1 46 0 1049 0 1079 -1 23 -2 23 -128 20 l-127
-2 -156 -415 c-86 -228 -159 -424 -164 -435 -6 -17 -10 -12 -25 30 -21 56
-236 627 -282 747 l-30 77 -125 -1 c-69 -1 -126 -4 -128 -7z"/>
<path d="M2640 2847 c-90 -24 -166 -84 -196 -155 -23 -53 -21 -129 5 -179 37
-73 111 -116 274 -157 52 -13 108 -31 125 -40 117 -60 59 -188 -85 -188 -92 0
-156 37 -173 102 l-10 37 -90 -1 c-85 0 -90 -1 -90 -22 0 -94 99 -204 216
-240 98 -30 250 -22 327 18 109 55 150 115 150 217 0 135 -74 201 -292 255
-175 44 -205 69 -182 147 10 34 19 44 57 60 51 23 112 21 163 -5 31 -16 61
-61 61 -91 0 -12 16 -15 95 -15 l95 0 0 28 c0 44 -44 125 -88 163 -22 19 -62
42 -88 53 -61 22 -211 30 -274 13z"/>
<path d="M3917 2850 c-91 -23 -176 -87 -225 -170 -82 -140 -73 -404 18 -542
120 -182 419 -206 570 -46 43 44 76 107 81 153 l4 30 -88 3 c-77 2 -88 1 -93
-15 -25 -81 -83 -125 -164 -125 -91 0 -155 52 -181 146 -16 55 -15 209 0 273
25 104 108 163 208 148 67 -10 130 -74 135 -138 2 -23 5 -24 90 -25 83 0 91 2
90 28 -5 105 -76 206 -177 255 -45 22 -73 28 -143 31 -48 2 -104 -1 -125 -6z"/>
<path d="M1545 2520 c1 -309 2 -327 23 -373 34 -75 59 -104 115 -131 110 -54
284 -32 352 44 l20 22 5 -38 5 -39 90 0 90 0 -1 420 0 420 -95 0 -94 0 -1
-308 0 -307 -25 -26 c-53 -58 -165 -82 -229 -49 -61 31 -64 51 -67 355 -1 151
-2 289 -3 305 l0 31 -93 -1 -94 0 2 -325z"/>
<path d="M3281 2840 c-4 -3 -6 -192 -6 -420 l0 -415 95 0 94 0 1 400 c0 220
-1 409 -3 421 -3 19 -10 20 -89 20 -47 -1 -88 -3 -92 -6z"/>
<path d="M3050 1735 l0 -216 -37 30 c-53 42 -117 62 -188 60 -83 -3 -137 -24
-193 -74 -88 -79 -131 -194 -132 -351 -2 -144 32 -260 96 -337 110 -131 305
-150 429 -43 16 14 30 24 31 23 1 -1 4 -18 6 -37 l4 -35 87 -3 87 -3 0 601 0
600 -95 0 -95 0 0 -215z m-79 -301 c15 -7 38 -27 53 -44 26 -31 26 -32 26
-213 0 -171 -1 -183 -22 -214 -29 -42 -91 -73 -146 -73 -125 0 -193 98 -193
275 1 126 22 196 77 247 48 45 142 55 205 22z"/>
<path d="M3491 1904 c-40 -17 -61 -63 -51 -111 9 -36 42 -72 69 -74 9 0 25 -2
36 -4 29 -6 81 22 94 51 19 43 14 89 -15 118 -15 14 -34 27 -43 27 -9 1 -26 3
-37 4 -12 1 -36 -4 -53 -11z"/>
<path d="M515 1902 c-128 -11 -220 -47 -286 -113 -58 -58 -83 -118 -82 -204 0
-163 93 -251 367 -344 198 -67 241 -102 241 -196 0 -64 -23 -100 -81 -130 -57
-29 -203 -28 -259 2 -67 35 -105 89 -105 149 0 18 -6 24 -22 25 -68 4 -155 4
-166 1 -22 -7 -13 -77 19 -140 68 -137 233 -221 424 -216 177 4 296 62 359
173 27 49 30 64 30 135 -1 62 -6 92 -23 127 -47 99 -148 168 -336 229 -198 64
-263 116 -253 204 13 108 128 162 281 132 67 -13 137 -95 137 -160 0 -21 4
-22 98 -21 l97 0 -3 45 c-6 83 -71 183 -152 234 -72 46 -197 76 -285 68z"/>
<path d="M1158 1698 l-3 -103 -52 -1 c-29 -1 -60 -2 -68 -3 -13 -1 -15 -13
-13 -68 l3 -68 65 0 65 0 5 -285 c5 -274 6 -287 28 -333 36 -71 91 -100 191
-100 42 0 87 5 101 11 24 9 26 14 25 78 l-1 69 -53 -3 c-44 -2 -55 2 -76 23
l-25 24 2 258 3 258 70 0 70 0 0 70 0 70 -70 0 -70 0 -3 103 -3 102 -94 0 -94
0 -3 -102z"/>
<path d="M4083 1595 c-168 -50 -273 -211 -273 -419 0 -260 144 -430 374 -440
255 -10 421 175 410 458 -8 205 -98 340 -263 396 -71 24 -177 26 -248 5z m197
-156 c84 -41 124 -123 123 -254 -1 -102 -4 -124 -27 -180 -40 -95 -118 -134
-227 -112 -44 9 -96 58 -123 117 -17 37 -21 64 -21 160 0 99 4 122 23 167 28
61 57 90 109 109 48 17 98 15 143 -7z"/>
<path d="M1643 1584 c-2 -7 -3 -156 -1 -331 3 -310 4 -319 27 -371 13 -29 41
-68 63 -86 90 -77 270 -81 374 -8 24 18 47 32 49 32 3 0 5 -16 5 -35 l0 -35
90 0 90 0 -2 423 -3 422 -90 0 -90 0 -5 -312 -5 -311 -24 -26 c-54 -57 -192
-75 -242 -30 -46 40 -49 65 -49 381 l0 298 -91 0 c-62 1 -93 -3 -96 -11z"/>
<path d="M3450 1173 l0 -423 95 0 95 0 0 423 0 422 -95 0 -95 1 0 -423z"/>
</g>
</svg>
