<svg version="1.1" viewBox="0.0 0.0 512.0 512.0" fill="none" stroke="none" stroke-linecap="square" stroke-miterlimit="10" xmlns:xlink="http://www.w3.org/1999/xlink" xmlns="http://www.w3.org/2000/svg"><clipPath id="p.0"><path d="m0 0l512.0 0l0 512.0l-512.0 0l0 -512.0z" clip-rule="nonzero"/></clipPath><g clip-path="url(#p.0)"><path fill="#000000" fill-opacity="0.0" d="m0 0l512.0 0l0 512.0l-512.0 0z" fill-rule="evenodd"/><path fill="#a5b4fc" d="m0 256.0l0 0c0 -141.38489 114.615105 -256.0 256.0 -256.0l0 0c67.89542 0 133.01001 26.971352 181.01935 74.98067c48.009308 48.009315 74.98065 113.12392 74.98065 181.01933l0 0c0 141.38489 -114.61511 256.0 -256.0 256.0l0 0c-141.38489 0 -256.0 -114.61511 -256.0 -256.0z" fill-rule="evenodd"/><path stroke="#4338ca" stroke-width="2.0" stroke-linejoin="round" stroke-linecap="butt" d="m0 256.0l0 0c0 -141.38489 114.615105 -256.0 256.0 -256.0l0 0c67.89542 0 133.01001 26.971352 181.01935 74.98067c48.009308 48.009315 74.98065 113.12392 74.98065 181.01933l0 0c0 141.38489 -114.61511 256.0 -256.0 256.0l0 0c-141.38489 0 -256.0 -114.61511 -256.0 -256.0z" fill-rule="evenodd"/><path fill="#000000" fill-opacity="0.0" d="m57.059258 17.53551l403.1496 0l0 512.0l-403.1496 0z" fill-rule="evenodd"/><path fill="#0f172a" d="m127.82488 124.25926q0.5937424 -0.84375 1.4374924 -0.84375l6.234375 0q1.203125 0 1.203125 1.203125l0 81.59375q0 1.203125 -1.203125 1.203125l-6.125 0q-1.1875 0 -1.1875 -1.203125l0 -66.71875q0 -0.359375 -0.24999237 -0.46875q-0.234375 -0.125 -0.359375 0.234375l-19.5625 30.0q-0.59375 0.84375 -1.4375 0.84375l-3.109375 0q-0.84375 0 -1.453125 -0.734375l-19.546875 -29.75q-0.125 -0.359375 -0.375 -0.234375q-0.234375 0.109375 -0.234375 0.46875l0 66.359375q0 1.203125 -1.203125 1.203125l-6.109375 0q-1.203125 0 -1.203125 -1.203125l0 -81.59375q0 -1.203125 1.203125 -1.203125l6.234375 0q0.96875 0 1.4375 0.71875l22.5625 34.203125q0.125 0.125 0.359375 0.125q0.234375 0 0.359375 -0.125l22.328125 -34.078125zm26.878029 107.15625q-0.84375 0 -0.84375 -1.203125l0 -4.796875q0 -1.203125 1.203125 -1.203125l0.484375 0q4.671875 -0.109375 7.25 -1.375q2.578125 -1.265625 4.4375 -4.6875q1.859375 -3.421875 4.03125 -10.375q0.234375 -0.484375 0 -0.71875l-20.28125 -59.046875l-0.125 -0.46875q0 -0.84375 1.078125 -0.84375l6.359375 0q1.078125 0 1.4375 0.953125l15.609375 48.484375q0.109375 0.234375 0.34375 0.234375q0.25 0 0.375 -0.234375l15.359375 -48.484375q0.359375 -0.953125 1.4375 -0.953125l6.234375 0q1.328125 0 0.96875 1.3125l-22.203125 64.6875q-2.875 8.03125 -5.40625 11.875q-2.515625 3.84375 -6.296875 5.34375q-3.78125 1.5 -10.609375 1.5l-0.84375 0zm102.59247 -64.5625q0.484375 3.359375 0.484375 8.40625l0 3.84375q0 1.1875 -1.203125 1.1875l-38.750015 0q-0.484375 0 -0.484375 0.484375q0.234375 6.59375 0.71875 8.515625q1.3125 5.40625 5.625 8.53125q4.328125 3.109375 11.046875 3.109375q5.046875 0 8.875 -2.28125q3.84375 -2.28125 6.015625 -6.46875q0.71875 -1.078125 1.671875 -0.484375l4.6875 2.765625q0.95314026 0.59375 0.46876526 1.671875q-3.0000153 5.765625 -9.000015 9.0625q-6.0 3.296875 -13.796875 3.296875q-8.515625 -0.125 -14.28125 -4.078125q-5.75 -3.953125 -8.28125 -11.046875q-2.15625 -5.75 -2.15625 -16.546875q0 -5.046875 0.171875 -8.21875q0.1875 -3.1875 0.90625 -5.703125q2.046875 -7.796875 8.21875 -12.484375q6.1875 -4.6875 14.953125 -4.6875q10.90625 0 16.78125 5.53125q5.890625 5.515625 7.3281403 15.59375zm-24.10939 -13.671875q-5.890625 0 -9.796875 3.0625q-3.890625 3.046875 -5.09375 8.21875q-0.71875 2.515625 -0.953125 8.15625q0 0.484375 0.484375 0.484375l31.078125 0q0.46875 0 0.46875 -0.484375q-0.234375 -5.40625 -0.71875 -7.6875q-1.3125 -5.390625 -5.34375 -8.5625q-4.015625 -3.1875 -10.125 -3.1875zm65.991196 -7.078125q3.96875 0 6.84375 1.546875q0.953125 0.484375 0.71875 1.5625l-1.328125 5.890625q-0.359375 1.1875 -1.546875 0.71875q-2.046875 -0.84375 -4.6875 -0.84375l-1.5625 0.125q-6.234375 0.234375 -10.3125 4.625q-4.078125 4.375 -4.078125 11.09375l0 35.390625q0 1.203125 -1.203125 1.203125l-6.125 0q-1.203125 0 -1.203125 -1.203125l0 -58.3125q0 -1.203125 1.203125 -1.203125l6.125 0q1.203125 0 1.203125 1.203125l0 7.3125q0 0.359375 0.171875 0.421875q0.1875 0.0625 0.296875 -0.171875q2.53125 -4.453125 6.421875 -6.90625q3.90625 -2.453125 9.0625 -2.453125zm38.757477 61.90625q-6.71875 0 -11.9375 -2.15625q-5.21875 -2.15625 -8.046875 -5.75q-2.8125 -3.609375 -2.8125 -8.046875l0 -1.4375q0 -1.203125 1.203125 -1.203125l5.765625 0q1.1875 0 1.1875 1.203125l0 0.953125q0 3.96875 4.140625 6.90625q4.140625 2.9375 10.390625 2.9375q6.234375 0 10.0625 -2.8125q3.84375 -2.828125 3.84375 -7.140625q0 -3.0 -1.984375 -4.921875q-1.96875 -1.921875 -4.671875 -3.0q-2.703125 -1.078125 -8.34375 -2.765625q-6.71875 -1.921875 -11.046875 -3.84375q-4.3125 -1.921875 -7.25 -5.328125q-2.9375 -3.421875 -2.9375 -8.703125q0 -7.6875 6.0 -12.234375q6.0 -4.5625 15.84375 -4.5625q6.59375 0 11.6875 2.15625q5.109375 2.15625 7.859375 5.9375q2.765625 3.78125 2.765625 8.453125l0 0.359375q0 1.203125 -1.1875 1.203125l-5.640625 0q-1.203125 0 -1.203125 -1.203125l0 -0.359375q0 -4.078125 -3.90625 -6.828125q-3.890625 -2.765625 -10.5 -2.765625q-6.109375 0 -9.84375 2.46875q-3.71875 2.453125 -3.71875 6.765625q0 4.078125 3.59375 6.25q3.609375 2.15625 11.171875 4.3125q6.953125 2.046875 11.265625 3.84375q4.328125 1.796875 7.453125 5.21875q3.125 3.421875 3.125 8.9375q0 7.796875 -6.125 12.484375q-6.125 4.671875 -16.203125 4.671875z" fill-rule="nonzero"/><path fill="#0f172a" d="m123.37176 218.36864q0.609375 -0.953125 1.6875 -0.953125l14.046867 0q0.59375 0 1.015625 0.421875q0.421875 0.421875 0.421875 1.015625l0 81.125015q0 0.59375 -0.421875 1.015625q-0.421875 0.421875 -1.015625 0.421875l-14.046867 0q-0.59375 0 -1.015625 -0.421875q-0.421875 -0.421875 -0.421875 -1.015625l0 -52.92189q0 -0.484375 -0.25 -0.484375q-0.234375 0 -0.46875 0.359375l-12.71875 19.92189q-0.609375 0.96875 -1.6875 0.96875l-7.078125 0q-1.078125 0 -1.671875 -0.96875l-12.734375 -19.92189q-0.234375 -0.359375 -0.484375 -0.296875q-0.234375 0.0625 -0.234375 0.546875l0 52.79689q0 0.59375 -0.421875 1.015625q-0.40625 0.421875 -1.015625 0.421875l-14.03125 0q-0.609375 0 -1.03125 -0.421875q-0.421875 -0.421875 -0.421875 -1.015625l0 -81.125015q0 -0.59375 0.421875 -1.015625q0.421875 -0.421875 1.03125 -0.421875l14.03125 0q1.078125 0 1.6875 0.953125l18.0 27.96875q0.359375 0.71875 0.71875 0l18.109375 -27.96875zm66.72178 22.8125q0 -0.609375 0.421875 -1.03125q0.421875 -0.421875 1.03125 -0.421875l14.03125 0q0.59375 0 1.015625 0.421875q0.421875 0.421875 0.421875 1.03125l0 58.79689q0 0.59375 -0.421875 1.015625q-0.421875 0.421875 -1.015625 0.421875l-14.03125 0q-0.609375 0 -1.03125 -0.421875q-0.421875 -0.421875 -0.421875 -1.015625l0 -4.078125q0 -0.359375 -0.234375 -0.421875q-0.234375 -0.0625 -0.484375 0.296875q-4.796875 6.484375 -14.875 6.484375q-9.125 0 -15.0 -5.515625q-5.875 -5.53125 -5.875 -15.484375l0 -40.07814q0 -0.609375 0.40625 -1.03125q0.421875 -0.421875 1.03125 -0.421875l13.921875 0q0.59375 0 1.015625 0.421875q0.421875 0.421875 0.421875 1.03125l0 35.875015q0 4.796875 2.578125 7.796875q2.578125 3.0 7.140625 3.0q4.078125 0 6.71875 -2.453125q2.640625 -2.46875 3.234375 -6.421875l0 -37.79689zm54.009308 61.07814q-8.046875 0 -14.046875 -2.28125q-6.0 -2.28125 -9.296875 -6.359375q-3.296875 -4.078125 -3.296875 -9.25l0 -1.1875q0 -0.609375 0.421875 -1.03125q0.421875 -0.421875 1.015625 -0.421875l13.3125 0q0.609375 0 1.03125 0.421875q0.421875 0.421875 0.421875 1.03125l0 0.109375q0 2.640625 2.9375 4.5q2.9375 1.859375 7.375 1.859375q4.078125 0 6.59375 -1.609375q2.53125 -1.625 2.53125 -4.03125q0 -2.15625 -2.171875 -3.234375q-2.15625 -1.078125 -7.078125 -2.28125q-5.640625 -1.4375 -8.875 -2.765625q-7.671875 -2.625 -12.234375 -6.46875q-4.5625 -3.84375 -4.5625 -11.046875q0 -8.875015 6.890625 -14.093765q6.90625 -5.21875 18.3125 -5.21875q7.671875 0 13.421875 2.46875q5.765625 2.453125 8.953125 6.890625q3.1875 4.4375 3.1875 10.07814q0 0.59375 -0.421875 1.015625q-0.421875 0.421875 -1.03125 0.421875l-12.828125 0q-0.609375 0 -1.03125 -0.421875q-0.421875 -0.421875 -0.421875 -1.015625q0 -2.6406403 -2.703125 -4.4375153q-2.6875 -1.796875 -7.125 -1.796875q-3.96875 0 -6.484375 1.4375q-2.515625 1.4375 -2.515625 3.9531403q0 2.40625 2.453125 3.609375q2.46875 1.1875 8.21875 2.515625q1.328125 0.359375 3.0 0.78125q1.6875 0.421875 3.609375 1.015625q8.515625 2.515625 13.4375 6.484375q4.921875 3.953125 4.921875 11.515625q0 8.875 -7.03125 13.859375q-7.015625 4.984375 -18.890625 4.984375zm44.755585 -69.48439q-4.078125 0 -6.78125 -2.703125q-2.703125 -2.703125 -2.703125 -6.78125q0 -4.1875 2.640625 -6.828125q2.640625 -2.640625 6.84375 -2.640625q4.203125 0 6.84375 2.640625q2.640625 2.640625 2.640625 6.828125q0 4.078125 -2.703125 6.78125q-2.703125 2.703125 -6.78125 2.703125zm-7.203125 68.64064q-0.59375 0 -1.015625 -0.421875q-0.421875 -0.421875 -0.421875 -1.015625l0 -58.92189q0 -0.59375 0.421875 -1.015625q0.421875 -0.421875 1.015625 -0.421875l14.046875 0q0.59375 0 1.015625 0.421875q0.421875 0.421875 0.421875 1.015625l0 58.92189q0 0.59375 -0.421875 1.015625q-0.421875 0.421875 -1.015625 0.421875l-14.046875 0zm55.8031 0.953125q-9.59375 0 -16.625 -4.796875q-7.015625 -4.796875 -10.015625 -13.203125q-2.03125 -6.0 -2.03125 -14.15625q0 -8.03125 2.03125 -13.921875q2.875 -8.156265 9.953125 -12.82814q7.09375 -4.6875 16.6875 -4.6875q9.59375 0 16.859375 4.796875q7.265625 4.796875 9.65625 12.125q0.96875 2.8750153 0.96875 4.3125153l0 0.25q0 1.078125 -1.203125 1.3125l-13.796875 2.046875l-0.25 0q-1.078125 0 -1.4375 -1.203125l-0.359375 -1.921875q-0.84375 -3.125 -3.71875 -5.1562653q-2.875 -2.046875 -6.84375 -2.046875q-3.828125 0 -6.46875 1.921875q-2.640625 1.9218903 -3.71875 5.2812653q-1.328125 3.609375 -1.328125 9.84375q0 6.234375 1.203125 9.84375q1.078125 3.59375 3.78125 5.640625q2.703125 2.03125 6.53125 2.03125q3.71875 0 6.53125 -1.96875q2.828125 -1.984375 3.921875 -5.46875q0.109375 -0.234375 0.109375 -0.71875q0.125 -0.125 0.125 -0.359375q0.125 -1.4375 1.671875 -1.203125l13.8125 2.15625q1.1875 0.25 1.1875 1.328125q0 0.953125 -0.71875 3.59375q-2.515625 8.046875 -9.78125 12.609375q-7.25 4.546875 -16.734375 4.546875z" fill-rule="nonzero"/><path fill="#0f172a" d="m98.18426 396.36865q-9.609375 0 -16.8125 -3.046875q-7.1875 -3.0625 -11.09375 -8.765625q-3.90625 -5.703125 -3.90625 -13.265625l0 -2.640625q0 -0.59375 0.421875 -1.015625q0.421875 -0.421875 1.03125 -0.421875l13.671875 0q0.609375 0 1.015625 0.421875q0.421875 0.421875 0.421875 1.015625l0 1.8125q0 4.796875 4.4375 8.09375q4.453125 3.296875 12.0 3.296875q6.375 0 9.484375 -2.6875q3.125 -2.703125 3.125 -6.671875q0 -2.875 -1.921875 -4.859375q-1.921875 -1.984375 -5.21875 -3.484375q-3.296875 -1.5 -10.5 -4.140625q-8.046875 -2.75 -13.625 -5.625q-5.578125 -2.890625 -9.359375 -7.859375q-3.78125 -4.984375 -3.78125 -12.3125q0 -7.203125 3.71875 -12.59375q3.71875 -5.40625 10.3125 -8.28125q6.609375 -2.875 15.25 -2.875q9.125 0 16.265625 3.234375q7.140625 3.234375 11.15625 9.0625q4.0156174 5.8125 4.0156174 13.5l0 1.796875q0 0.59375 -0.42186737 1.015625q-0.40625 0.421875 -1.015625 0.421875l-13.796875 0q-0.59375 0 -1.015625 -0.421875q-0.421875 -0.421875 -0.421875 -1.015625l0 -0.953125q0 -5.046875 -4.140625 -8.578125q-4.140625 -3.546875 -11.34375 -3.546875q-5.640625 0 -8.828125 2.40625q-3.171875 2.390625 -3.171875 6.59375q0 3.0 1.859375 5.046875q1.859375 2.03125 5.515625 3.65625q3.671875 1.609375 11.34375 4.375q8.515625 3.125 13.375 5.53125q4.875 2.390625 8.765625 7.140625q3.9062424 4.734375 3.9062424 12.28125q0 11.28125 -8.281242 17.828125q-8.28125 6.53125 -22.4375 6.53125zm76.91555 -50.515625q0 0.609375 -0.421875 1.03125q-0.421875 0.40625 -1.015625 0.40625l-11.515625 0q-0.609375 0 -0.609375 0.609375l0 25.4375q0 3.953125 1.609375 5.875q1.625 1.921875 5.234375 1.921875l3.953125 0q0.609375 0 1.015625 0.421875q0.421875 0.421875 0.421875 1.015625l0 11.40625q0 1.3125 -1.4375 1.5625q-5.03125 0.234375 -7.1875 0.234375q-9.96875 0 -14.890625 -3.296875q-4.921875 -3.296875 -5.03125 -12.421875l0 -32.15625q0 -0.609375 -0.609375 -0.609375l-6.84375 0q-0.59375 0 -1.015625 -0.40625q-0.421875 -0.421875 -0.421875 -1.03125l0 -10.671875q0 -0.609375 0.421875 -1.03125q0.421875 -0.421875 1.015625 -0.421875l6.84375 0q0.609375 0 0.609375 -0.59375l0 -14.28125q0 -0.59375 0.40625 -1.015625q0.421875 -0.421875 1.03125 -0.421875l13.4375 0q0.59375 0 1.015625 0.421875q0.421875 0.421875 0.421875 1.015625l0 14.28125q0 0.59375 0.609375 0.59375l11.515625 0q0.59375 0 1.015625 0.421875q0.421875 0.421875 0.421875 1.03125l0 10.671875zm46.19371 -10.671875q0 -0.609375 0.421875 -1.03125q0.421875 -0.421875 1.03125 -0.421875l14.03125 0q0.59375 0 1.015625 0.421875q0.421875 0.421875 0.421875 1.03125l0 58.796875q0 0.59375 -0.421875 1.015625q-0.421875 0.421875 -1.015625 0.421875l-14.03125 0q-0.609375 0 -1.03125 -0.421875q-0.421875 -0.421875 -0.421875 -1.015625l0 -4.078125q0 -0.359375 -0.234375 -0.421875q-0.234375 -0.0625 -0.484375 0.296875q-4.796875 6.484375 -14.875 6.484375q-9.125 0 -15.0 -5.515625q-5.875 -5.53125 -5.875 -15.484375l0 -40.078125q0 -0.609375 0.40625 -1.03125q0.421875 -0.421875 1.03125 -0.421875l13.921875 0q0.59375 0 1.015625 0.421875q0.421875 0.421875 0.421875 1.03125l0 35.875q0 4.796875 2.578125 7.796875q2.578125 3.0 7.140625 3.0q4.078125 0 6.71875 -2.453125q2.640625 -2.46875 3.234375 -6.421875l0 -37.796875zm67.68118 -22.328125q0 -0.59375 0.421875 -1.015625q0.421875 -0.421875 1.015625 -0.421875l14.046875 0q0.59375 0 1.015625 0.421875q0.421875 0.421875 0.421875 1.015625l0 81.125q0 0.59375 -0.421875 1.015625q-0.421875 0.421875 -1.015625 0.421875l-14.046875 0q-0.59375 0 -1.015625 -0.421875q-0.421875 -0.421875 -0.421875 -1.015625l0 -3.96875q0 -0.359375 -0.234375 -0.40625q-0.234375 -0.0625 -0.484375 0.171875q-5.03125 6.59375 -13.796875 6.59375q-8.40625 0 -14.46875 -4.671875q-6.046875 -4.6875 -8.6875 -12.84375q-2.046875 -6.234375 -2.046875 -14.515625q0 -8.515625 2.15625 -14.875q2.765625 -7.6875 8.703125 -12.1875q5.9375 -4.5 14.703125 -4.5q8.640625 0 13.4375 6.0q0.25 0.359375 0.484375 0.25q0.234375 -0.125 0.234375 -0.484375l0 -25.6875zm-2.515625 63.84375q2.40625 -4.4375 2.40625 -12.125q0 -8.03125 -2.640625 -12.59375q-2.765625 -4.6875 -8.046875 -4.6875q-5.640625 0 -8.515625 4.6875q-3.0 4.671875 -3.0 12.71875q0 7.203125 2.515625 12.0q3.0 5.15625 8.875 5.15625q5.40625 0 8.40625 -5.15625zm41.279327 -49.921875q-4.078125 0 -6.78125 -2.703125q-2.703125 -2.703125 -2.703125 -6.78125q0 -4.1875 2.640625 -6.828125q2.640625 -2.640625 6.84375 -2.640625q4.203125 0 6.84375 2.640625q2.640625 2.640625 2.640625 6.828125q0 4.078125 -2.703125 6.78125q-2.703125 2.703125 -6.78125 2.703125zm-7.203125 68.640625q-0.59375 0 -1.015625 -0.421875q-0.421875 -0.421875 -0.421875 -1.015625l0 -58.921875q0 -0.59375 0.421875 -1.015625q0.421875 -0.421875 1.015625 -0.421875l14.046875 0q0.59375 0 1.015625 0.421875q0.421875 0.421875 0.421875 1.015625l0 58.921875q0 0.59375 -0.421875 1.015625q-0.421875 0.421875 -1.015625 0.421875l-14.046875 0zm55.9281 0.953125q-10.078125 0 -17.28125 -5.265625q-7.203125 -5.28125 -9.84375 -14.40625q-1.671875 -5.640625 -1.671875 -12.234375q0 -7.09375 1.671875 -12.734375q2.765625 -8.875 9.953125 -13.90625q7.203125 -5.046875 17.28125 -5.046875q9.84375 0 16.796875 4.984375q6.96875 4.96875 9.84375 13.859375q1.921875 6.0 1.921875 12.59375q0 6.484375 -1.671875 12.125q-2.640625 9.359375 -9.78125 14.703125q-7.140625 5.328125 -17.21875 5.328125zm0 -14.515625q3.953125 0 6.703125 -2.390625q2.765625 -2.40625 3.96875 -6.609375q0.96875 -3.84375 0.96875 -8.390625q0 -5.046875 -0.96875 -8.53125q-1.3125 -4.078125 -4.078125 -6.359375q-2.765625 -2.28125 -6.71875 -2.28125q-4.078125 0 -6.78125 2.28125q-2.703125 2.28125 -3.890625 6.359375q-0.96875 2.890625 -0.96875 8.53125q0 5.390625 0.84375 8.390625q1.203125 4.203125 4.015625 6.609375q2.828125 2.390625 6.90625 2.390625z" fill-rule="nonzero"/><path fill="#000000" fill-opacity="0.0" d="m440.28156 113.401665l-0.6929321 282.01575" fill-rule="evenodd"/><path stroke="#0f172a" stroke-width="12.0" stroke-linejoin="round" stroke-linecap="round" d="m440.28156 113.401665l-0.6929321 282.01575" fill-rule="evenodd"/><path fill="#000000" fill-opacity="0.0" d="m416.8602 111.60307l0.28344727 288.0" fill-rule="evenodd"/><path stroke="#0f172a" stroke-width="4.0" stroke-linejoin="round" stroke-linecap="round" d="m416.8602 111.60307l0.28344727 288.0" fill-rule="evenodd"/></g></svg>