<?xml version="1.0" standalone="no"?>
<!DOCTYPE svg PUBLIC "-//W3C//DTD SVG 20010904//EN"
 "http://www.w3.org/TR/2001/REC-SVG-20010904/DTD/svg10.dtd">
<svg version="1.0" xmlns="http://www.w3.org/2000/svg"
 width="700.000000pt" height="700.000000pt" viewBox="0 0 700.000000 700.000000"
 preserveAspectRatio="xMidYMid meet">
<metadata>
Created by potrace 1.14, written by Peter Selinger 2001-2017
</metadata>
<g transform="translate(0.000000,700.000000) scale(0.100000,-0.100000)"
fill="#000000" stroke="none">
<path d="M3040 6984 c-638 -87 -1236 -342 -1735 -740 -143 -114 -437 -409
-549 -549 -346 -435 -584 -941 -695 -1478 -56 -272 -63 -366 -58 -779 4 -348
6 -383 31 -518 112 -617 347 -1144 722 -1615 107 -135 405 -434 534 -536 532
-421 1109 -668 1763 -754 165 -21 729 -21 894 0 641 84 1241 338 1748 741 140
112 437 408 544 544 414 523 661 1106 747 1761 13 102 15 191 11 499 -4 350
-6 385 -31 520 -138 763 -472 1400 -1008 1926 -207 204 -389 346 -623 490
-378 231 -790 386 -1255 470 -138 25 -164 27 -540 30 -303 2 -420 -1 -500 -12z
m930 -33 c652 -97 1213 -338 1715 -737 141 -113 416 -388 529 -529 405 -510
645 -1074 743 -1750 22 -152 25 -687 5 -835 -101 -736 -361 -1330 -816 -1864
-558 -654 -1322 -1068 -2201 -1192 -155 -21 -560 -30 -737 -15 -632 54 -1239
279 -1754 652 -314 228 -622 546 -840 869 -329 487 -531 1055 -583 1637 -14
156 -14 470 0 626 123 1381 1068 2568 2385 2997 236 77 515 136 754 159 165
16 644 6 800 -18z"/>
<path d="M5967 5518 c-9 -7 -20 -25 -26 -39 -6 -17 -10 -739 -12 -1975 l-2
-1947 27 -24 c46 -39 115 -23 136 33 6 14 10 815 10 1971 l1 1946 -22 23 c-25
27 -84 33 -112 12z"/>
<path d="M5675 5488 c-3 -7 -4 -904 -3 -1993 l3 -1980 25 0 25 0 0 1990 0
1990 -23 3 c-12 2 -24 -3 -27 -10z"/>
<path d="M1005 5308 c-3 -7 -4 -267 -3 -578 l3 -565 58 -3 57 -3 0 468 0 468
141 -213 140 -213 36 3 c36 3 40 7 173 211 l135 208 5 -463 5 -463 58 -3 57
-3 -2 578 -3 578 -55 0 -55 0 -150 -227 c-83 -126 -156 -233 -161 -238 -8 -8
-56 58 -159 215 -81 125 -154 233 -162 241 -18 18 -112 19 -118 2z"/>
<path d="M3085 4996 c-89 -28 -154 -83 -195 -165 -52 -105 -50 -378 5 -498 54
-119 138 -174 276 -181 101 -5 171 12 240 58 50 33 104 102 96 122 -2 7 -23
23 -45 36 l-40 22 -23 -32 c-28 -40 -43 -52 -93 -79 -32 -17 -53 -20 -117 -17
-67 3 -83 7 -121 33 -57 40 -88 102 -88 177 l0 58 273 2 272 3 3 54 c8 144
-46 297 -126 358 -24 18 -66 39 -94 48 -62 18 -168 19 -223 1z m193 -111 c76
-32 112 -86 122 -182 l6 -63 -213 0 -213 0 0 44 c0 54 23 123 53 155 52 56
167 78 245 46z"/>
<path d="M4029 4997 c-51 -15 -98 -45 -129 -84 l-20 -26 0 44 c0 63 -8 71 -71
67 l-54 -3 0 -415 0 -415 58 -3 c31 -2 58 -2 59 0 1 2 4 134 7 295 l6 291 30
43 c41 57 92 83 169 83 34 0 67 -2 75 -5 9 -3 18 12 27 46 18 65 18 61 -13 73
-48 19 -96 22 -144 9z"/>
<path d="M4531 4999 c-67 -11 -146 -54 -177 -94 -58 -77 -57 -190 4 -257 45
-50 99 -77 232 -118 176 -55 210 -78 210 -148 0 -165 -329 -179 -372 -16 l-12
44 -52 0 c-61 0 -66 -8 -52 -75 14 -63 74 -124 154 -155 82 -32 224 -33 306
-1 105 41 168 139 154 240 -14 99 -76 150 -254 207 -208 66 -242 88 -242 155
0 76 66 119 181 119 113 0 182 -42 191 -116 3 -28 5 -29 58 -29 50 0 55 2 58
24 6 42 -27 109 -75 151 -70 61 -197 89 -312 69z"/>
<path d="M2065 4991 c-3 -6 57 -195 135 -420 l140 -409 -25 -67 c-43 -116 -71
-143 -159 -154 l-51 -6 0 -50 0 -50 65 3 c36 1 79 7 97 13 41 13 99 78 129
143 38 84 345 986 339 997 -4 5 -31 9 -60 9 l-54 0 -71 -222 c-40 -123 -89
-277 -110 -342 l-38 -119 -87 269 c-47 148 -96 301 -109 339 l-23 70 -55 3
c-31 2 -59 -2 -63 -7z"/>
<path d="M3894 4070 c-11 -4 -33 -22 -47 -40 -47 -55 -32 -155 29 -194 57 -38
159 -14 189 44 18 35 19 96 2 130 -28 55 -112 85 -173 60z"/>
<path d="M946 4014 c-8 -20 -8 -1098 0 -1118 5 -13 25 -16 120 -16 l114 0 2
373 3 372 90 -142 c80 -127 94 -143 123 -149 29 -6 100 0 107 8 1 2 42 66 91
143 l89 140 3 -372 2 -373 114 0 c95 0 115 3 120 16 8 20 8 1098 0 1118 -5 13
-25 16 -119 16 l-113 0 -108 -167 c-59 -93 -117 -182 -129 -200 l-21 -31 -128
199 -129 199 -112 0 c-94 0 -114 -3 -119 -16z"/>
<path d="M3220 3726 c-113 -26 -176 -70 -215 -151 -24 -48 -27 -64 -23 -120
10 -125 75 -178 306 -251 174 -56 200 -76 153 -123 -66 -66 -228 -36 -243 44
-3 19 -11 20 -113 20 -108 0 -110 0 -113 -24 -7 -48 20 -114 65 -158 131 -127
453 -133 581 -10 52 49 73 100 74 171 1 141 -86 211 -343 276 -120 31 -141 44
-137 83 4 46 53 70 129 64 66 -6 107 -29 116 -66 3 -14 11 -29 17 -33 13 -9
168 -10 190 -2 34 13 10 114 -41 174 -47 54 -107 88 -189 105 -82 18 -140 18
-214 1z"/>
<path d="M4503 3725 c-190 -53 -283 -190 -283 -417 0 -110 14 -178 53 -251 53
-101 147 -166 272 -188 181 -31 370 61 424 206 27 71 26 84 -1 94 -40 14 -202
34 -205 25 -36 -108 -143 -157 -228 -104 -51 31 -69 79 -72 195 -5 174 39 245
152 245 68 0 114 -30 135 -87 8 -23 18 -44 21 -47 5 -6 196 21 210 30 16 9 9
58 -14 109 -32 67 -121 147 -195 175 -74 28 -198 35 -269 15z"/>
<path d="M2107 3724 c-13 -13 -8 -638 5 -675 40 -118 140 -183 280 -182 52 0
79 6 123 28 31 15 59 33 62 41 10 26 23 14 23 -21 l0 -35 115 0 115 0 -2 423
-3 422 -110 0 -110 0 -5 -280 c-4 -243 -7 -284 -23 -312 -21 -40 -64 -63 -114
-63 -51 0 -83 18 -107 60 -19 32 -21 56 -26 315 l-5 280 -106 3 c-58 1 -108
-1 -112 -4z"/>
<path d="M3837 3723 c-4 -3 -7 -195 -7 -425 l0 -419 118 3 117 3 3 409 c1 293
-1 413 -9 422 -8 10 -39 14 -114 14 -56 0 -105 -3 -108 -7z"/>
<path d="M4408 2774 c-35 -19 -58 -63 -58 -111 0 -50 18 -82 60 -111 29 -19
44 -23 84 -19 41 4 55 11 83 41 27 29 33 44 33 81 0 52 -19 96 -52 119 -28 20
-114 20 -150 0z"/>
<path d="M1198 2744 c-118 -28 -206 -93 -250 -183 -33 -66 -33 -197 0 -259 52
-98 126 -147 356 -233 71 -27 144 -59 163 -70 99 -61 68 -184 -52 -209 -137
-28 -263 35 -275 138 l-5 47 -115 0 -115 0 2 -70 c6 -155 112 -269 290 -311
96 -23 267 -15 346 15 160 62 247 205 217 359 -12 68 -29 98 -82 149 -52 50
-104 77 -288 148 -174 66 -200 81 -223 126 -15 32 -16 41 -5 74 20 59 56 79
146 83 65 3 84 0 122 -20 53 -27 90 -78 90 -124 0 -45 21 -54 122 -54 112 0
123 8 114 86 -26 229 -288 374 -558 308z"/>
<path d="M3963 2743 c-10 -3 -13 -51 -13 -191 l0 -186 -27 27 c-42 40 -94 57
-172 57 -168 0 -289 -103 -331 -280 -17 -70 -17 -230 0 -300 31 -135 120 -244
222 -275 109 -32 221 -12 278 50 l25 27 5 -39 5 -38 109 -3 c81 -2 112 1 118
10 13 22 10 1122 -4 1136 -12 12 -188 16 -215 5z m-110 -507 c60 -25 89 -96
89 -220 0 -103 -16 -156 -58 -197 -29 -28 -41 -33 -82 -33 -102 0 -147 72
-147 234 0 82 3 102 25 144 39 76 102 102 173 72z"/>
<path d="M1987 2653 c-4 -3 -7 -53 -7 -109 l0 -103 -57 -3 -58 -3 0 -90 0 -90
57 -3 57 -3 3 -262 c3 -225 5 -266 20 -293 43 -79 120 -108 278 -102 l95 3 0
95 0 95 -59 6 c-100 11 -100 13 -104 254 l-3 204 93 3 93 3 0 90 0 90 -92 3
-93 3 0 109 0 110 -108 0 c-60 0 -112 -3 -115 -7z"/>
<path d="M5002 2430 c-162 -58 -252 -205 -252 -412 1 -195 80 -337 228 -406
51 -24 69 -27 167 -27 100 0 116 3 172 29 152 70 230 223 220 431 -5 117 -28
192 -81 264 -41 56 -114 106 -182 127 -67 20 -207 17 -272 -6z m226 -208 c52
-38 67 -83 67 -207 0 -136 -20 -185 -88 -216 -52 -23 -66 -23 -117 -3 -30 12
-48 29 -68 63 -25 43 -27 54 -27 156 0 99 3 115 25 155 44 79 137 102 208 52z"/>
<path d="M2524 2426 c-3 -8 -4 -155 -2 -328 3 -293 4 -316 24 -358 73 -157
300 -212 438 -106 l35 26 3 -32 3 -33 115 0 115 0 0 420 0 420 -115 0 -115 0
-5 -287 c-5 -271 -6 -288 -26 -315 -47 -64 -160 -64 -206 0 -22 31 -23 40 -28
317 l-5 285 -113 3 c-91 2 -113 0 -118 -12z"/>
<path d="M4365 2428 c-3 -7 -4 -198 -3 -423 l3 -410 115 0 115 0 0 420 0 420
-113 3 c-84 2 -114 -1 -117 -10z"/>
</g>
</svg>
